<svg xmlns="http://www.w3.org/2000/svg" width="520" height="420" viewBox="0 0 520 420" font-family="sans-serif">
<rect width="520" height="420" fill="#ffffff"/>
<text x="260.0" y="24" text-anchor="middle" font-size="15" font-weight="bold" fill="#111">Precision-Recall curves - held-out test set (top 4 models)</text>
<line x1="62" y1="368.00" x2="502" y2="368.00" stroke="#e5e7eb" stroke-width="1"/>
<line x1="62.00" y1="44" x2="62.00" y2="368" stroke="#e5e7eb" stroke-width="1"/>
<text x="54" y="372.00" text-anchor="end" font-size="11" fill="#555">0.0</text>
<text x="62.00" y="386" text-anchor="middle" font-size="11" fill="#555">0.0</text>
<line x1="62" y1="303.20" x2="502" y2="303.20" stroke="#e5e7eb" stroke-width="1"/>
<line x1="150.00" y1="44" x2="150.00" y2="368" stroke="#e5e7eb" stroke-width="1"/>
<text x="54" y="307.20" text-anchor="end" font-size="11" fill="#555">0.2</text>
<text x="150.00" y="386" text-anchor="middle" font-size="11" fill="#555">0.2</text>
<line x1="62" y1="238.40" x2="502" y2="238.40" stroke="#e5e7eb" stroke-width="1"/>
<line x1="238.00" y1="44" x2="238.00" y2="368" stroke="#e5e7eb" stroke-width="1"/>
<text x="54" y="242.40" text-anchor="end" font-size="11" fill="#555">0.4</text>
<text x="238.00" y="386" text-anchor="middle" font-size="11" fill="#555">0.4</text>
<line x1="62" y1="173.60" x2="502" y2="173.60" stroke="#e5e7eb" stroke-width="1"/>
<line x1="326.00" y1="44" x2="326.00" y2="368" stroke="#e5e7eb" stroke-width="1"/>
<text x="54" y="177.60" text-anchor="end" font-size="11" fill="#555">0.6</text>
<text x="326.00" y="386" text-anchor="middle" font-size="11" fill="#555">0.6</text>
<line x1="62" y1="108.80" x2="502" y2="108.80" stroke="#e5e7eb" stroke-width="1"/>
<line x1="414.00" y1="44" x2="414.00" y2="368" stroke="#e5e7eb" stroke-width="1"/>
<text x="54" y="112.80" text-anchor="end" font-size="11" fill="#555">0.8</text>
<text x="414.00" y="386" text-anchor="middle" font-size="11" fill="#555">0.8</text>
<line x1="62" y1="44.00" x2="502" y2="44.00" stroke="#e5e7eb" stroke-width="1"/>
<line x1="502.00" y1="44" x2="502.00" y2="368" stroke="#e5e7eb" stroke-width="1"/>
<text x="54" y="48.00" text-anchor="end" font-size="11" fill="#555">1.0</text>
<text x="502.00" y="386" text-anchor="middle" font-size="11" fill="#555">1.0</text>
<rect x="62" y="44" width="440" height="324" fill="none" stroke="#999"/>
<polyline points="84.07,44.00 84.09,44.00 84.11,44.00 84.16,44.00 84.20,44.00 84.22,44.00 84.27,44.00 84.29,44.00 84.36,44.00 84.40,44.00 84.45,44.00 84.47,44.00 84.49,44.00 84.52,44.00 84.54,44.00 84.61,44.00 84.68,44.00 84.75,44.00 84.80,44.00 84.82,44.00 84.85,44.00 84.87,44.00 84.89,44.00 84.92,44.00 84.94,44.00 84.99,44.00 85.01,44.00 85.04,44.00 85.06,44.00 85.08,44.00 85.11,44.00 85.16,44.00 85.23,44.00 85.26,44.00 85.31,44.00 85.33,44.00 85.35,44.00 85.38,44.00 85.40,44.00 85.45,44.00 85.48,44.00 85.53,44.00 85.55,44.00 85.63,44.00 85.71,44.00 85.73,44.00 85.78,44.00 85.84,44.00 85.86,44.00 85.89,44.00 85.91,44.00 85.94,44.00 85.97,44.00 85.99,44.00 86.02,44.00 86.04,44.00 86.07,44.00 86.10,44.00 86.12,44.00 86.15,44.00 86.18,44.00 86.20,44.00 86.26,44.00 86.28,44.00 86.31,44.00 86.34,44.00 86.36,44.00 86.39,44.00 86.42,44.00 86.47,44.00 86.50,44.00 86.53,44.00 86.55,44.00 86.58,44.00 86.61,44.00 86.64,44.00 86.66,44.00 86.69,44.00 86.72,44.00 86.75,44.00 86.77,44.00 86.80,44.00 86.83,44.00 86.86,44.00 86.89,44.00 87.00,44.00 87.03,44.00 87.06,44.00 87.09,44.00 87.11,44.00 87.14,44.00 87.17,44.00 87.20,44.00 87.29,44.00 87.32,44.00 87.35,44.00 87.37,44.00 87.40,44.00 87.43,44.00 87.46,44.00 87.49,44.00 87.52,44.00 87.55,44.00 87.58,44.00 87.61,44.00 87.64,44.00 87.67,44.00 87.70,44.00 87.73,44.00 87.76,44.00 87.79,44.00 87.82,44.00 87.85,44.00 87.88,44.00 87.91,44.00 87.94,44.00 87.97,44.00 88.00,44.00 88.04,44.00 88.07,44.00 88.10,44.00 88.13,44.00 88.16,44.00 88.19,44.00 88.22,44.00 88.25,44.00 88.28,44.00 88.35,44.00 88.38,44.00 88.41,44.00 88.44,44.00 88.47,44.00 88.51,44.00 88.54,44.00 88.57,44.00 88.60,44.00 88.63,44.00 88.67,44.00 88.70,44.00 88.73,44.00 88.76,44.00 88.80,44.00 88.83,44.00 88.86,44.00 88.89,44.00 88.93,44.00 88.96,44.00 88.99,44.00 89.03,44.00 89.06,44.00 89.09,44.00 89.13,44.00 89.16,44.00 89.19,44.00 89.23,44.00 89.26,44.00 89.30,44.00 89.33,44.00 89.36,44.00 89.40,44.00 89.43,44.00 89.47,44.00 89.50,44.00 89.53,44.00 89.60,44.00 89.64,44.00 89.67,44.00 89.71,44.00 89.74,44.00 89.78,44.00 89.81,44.00 89.85,44.00 89.88,44.00 89.92,44.00 89.95,44.00 89.99,44.00 90.03,44.00 90.06,44.00 90.10,44.00 90.13,44.00 90.17,44.00 90.21,44.00 90.24,44.00 90.28,44.00 90.31,44.00 90.35,44.00 90.39,44.00 90.42,44.00 90.46,44.00 90.50,44.00 90.53,44.00 90.57,44.00 90.61,44.00 90.65,44.00 90.68,44.00 90.72,44.00 90.76,44.00 90.80,44.00 90.83,44.00 90.87,44.00 90.91,44.00 90.95,44.00 90.99,44.00 91.02,44.00 91.06,44.00 91.10,44.00 91.14,44.00 91.18,44.00 91.22,44.00 91.26,44.00 91.29,44.00 91.33,44.00 91.37,44.00 91.41,44.00 91.45,44.00 91.49,44.00 91.53,44.00 91.57,44.00 91.61,44.00 91.65,44.00 91.69,44.00 91.73,44.00 91.77,44.00 91.81,44.00 91.85,44.00 91.89,44.00 91.93,44.00 91.97,44.00 92.01,44.00 92.05,44.00 92.10,44.00 92.14,44.00 92.18,44.00 92.22,44.00 92.26,44.00 92.30,44.00 92.34,44.00 91.78,50.48 91.82,50.48 91.86,50.48 91.90,50.48 91.94,50.48 91.99,50.48 92.03,50.48 92.07,50.48 92.11,50.48 92.15,50.48 92.20,50.48 92.24,50.48 92.28,50.48 92.32,50.48 92.37,50.48 92.41,50.48 92.45,50.48 92.50,50.48 92.54,50.48 92.58,50.48 92.62,50.48 92.67,50.48 92.71,50.48 92.76,50.48 92.80,50.48 92.84,50.48 92.89,50.48 92.93,50.48 92.98,50.48 93.02,50.48 93.07,50.48 93.11,50.48 93.16,50.48 93.20,50.48 93.25,50.48 93.29,50.48 93.34,50.48 93.38,50.48 93.43,50.48 93.47,50.48 93.52,50.48 93.57,50.48 93.61,50.48 93.66,50.48 93.71,50.48 93.75,50.48 93.80,50.48 93.85,50.48 93.89,50.48 93.94,50.48 93.99,50.48 94.04,50.48 94.08,50.48 94.13,50.48 94.18,50.48 94.23,50.48 94.28,50.48 94.32,50.48 94.37,50.48 94.42,50.48 94.47,50.48 94.52,50.48 94.57,50.48 94.62,50.48 94.67,50.48 94.72,50.48 94.10,56.96 94.15,56.96 94.20,56.96 94.24,56.96 94.29,56.96 94.34,56.96 94.39,56.96 94.44,56.96 94.49,56.96 94.54,56.96 94.59,56.96 94.64,56.96 94.69,56.96 94.74,56.96 94.80,56.96 94.85,56.96 94.90,56.96 94.95,56.96 95.00,56.96 95.05,56.96 95.10,56.96 95.16,56.96 95.21,56.96 95.26,56.96 95.31,56.96 95.36,56.96 95.42,56.96 95.47,56.96 95.52,56.96 95.58,56.96 95.63,56.96 95.68,56.96 95.74,56.96 95.79,56.96 95.85,56.96 95.90,56.96 95.95,56.96 96.01,56.96 96.06,56.96 96.12,56.96 96.17,56.96 96.23,56.96 96.29,56.96 96.34,56.96 96.40,56.96 96.45,56.96 96.51,56.96 96.57,56.96 96.62,56.96 96.68,56.96 96.74,56.96 96.79,56.96 96.85,56.96 96.91,56.96 96.97,56.96 97.02,56.96 97.08,56.96 97.14,56.96 97.20,56.96 97.26,56.96 97.32,56.96 97.38,56.96 97.44,56.96 97.50,56.96 97.56,56.96 97.62,56.96 97.68,56.96 97.74,56.96 97.80,56.96 97.86,56.96 97.92,56.96 97.98,56.96 98.04,56.96 98.10,56.96 98.16,56.96 98.23,56.96 98.29,56.96 98.35,56.96 98.41,56.96 98.48,56.96 98.54,56.96 98.60,56.96 98.67,56.96 98.73,56.96 98.79,56.96 98.86,56.96 98.92,56.96 98.99,56.96 99.05,56.96 99.12,56.96 99.18,56.96 99.25,56.96 99.31,56.96 99.38,56.96 99.45,56.96 99.51,56.96 99.58,56.96 99.65,56.96 99.71,56.96 98.99,63.44 99.06,63.44 99.13,63.44 99.19,63.44 99.26,63.44 99.33,63.44 99.40,63.44 99.46,63.44 99.53,63.44 99.60,63.44 99.67,63.44 99.74,63.44 99.81,63.44 99.88,63.44 99.94,63.44 100.01,63.44 100.08,63.44 100.15,63.44 100.23,63.44 100.30,63.44 100.37,63.44 100.44,63.44 100.51,63.44 100.58,63.44 100.65,63.44 100.73,63.44 100.80,63.44 100.87,63.44 100.95,63.44 101.02,63.44 101.09,63.44 101.17,63.44 101.24,63.44 101.32,63.44 101.39,63.44 101.47,63.44 101.54,63.44 101.62,63.44 101.69,63.44 101.77,63.44 101.85,63.44 101.92,63.44 102.00,63.44 102.08,63.44 102.16,63.44 102.23,63.44 102.31,63.44 102.39,63.44 102.47,63.44 102.55,63.44 102.63,63.44 102.71,63.44 102.79,63.44 102.87,63.44 102.95,63.44 103.03,63.44 103.11,63.44 103.20,63.44 103.28,63.44 103.36,63.44 103.44,63.44 103.53,63.44 103.61,63.44 103.69,63.44 103.78,63.44 103.86,63.44 103.95,63.44 104.03,63.44 104.12,63.44 104.20,63.44 104.29,63.44 104.38,63.44 104.46,63.44 104.55,63.44 104.64,63.44 104.73,63.44 104.82,63.44 104.90,63.44 104.99,63.44 105.08,63.44 105.17,63.44 105.26,63.44 105.35,63.44 105.45,63.44 105.54,63.44 105.63,63.44 105.72,63.44 105.81,63.44 105.91,63.44 106.00,63.44 106.09,63.44 106.19,63.44 106.28,63.44 106.38,63.44 106.47,63.44 106.57,63.44 106.67,63.44 106.76,63.44 106.86,63.44 106.96,63.44 107.05,63.44 107.15,63.44 107.25,63.44 107.35,63.44 107.45,63.44 107.55,63.44 107.65,63.44 107.75,63.44 107.85,63.44 107.96,63.44 108.06,63.44 108.16,63.44 108.26,63.44 108.37,63.44 108.47,63.44 108.58,63.44 108.68,63.44 108.79,63.44 108.89,63.44 109.00,63.44 109.11,63.44 109.21,63.44 109.32,63.44 109.43,63.44 109.54,63.44 109.65,63.44 109.76,63.44 109.87,63.44 109.98,63.44 110.09,63.44 110.21,63.44 110.32,63.44 110.43,63.44 110.54,63.44 109.62,69.92 109.74,69.92 109.85,69.92 109.96,69.92 110.08,69.92 110.19,69.92 110.31,69.92 110.42,69.92 110.54,69.92 110.65,69.92 110.77,69.92 110.89,69.92 111.01,69.92 111.13,69.92 111.25,69.92 111.37,69.92 111.49,69.92 111.61,69.92 111.73,69.92 111.85,69.92 111.98,69.92 112.10,69.92 112.22,69.92 112.35,69.92 112.47,69.92 112.60,69.92 112.73,69.92 112.85,69.92 112.98,69.92 113.11,69.92 113.24,69.92 113.37,69.92 113.50,69.92 113.63,69.92 113.76,69.92 113.90,69.92 112.90,76.40 113.03,76.40 113.16,76.40 113.30,76.40 113.43,76.40 113.56,76.40 113.70,76.40 113.83,76.40 112.81,82.88 112.95,82.88 113.08,82.88 113.22,82.88 113.35,82.88 113.49,82.88 113.63,82.88 113.76,82.88 113.90,82.88 114.04,82.88 114.18,82.88 114.32,82.88 114.47,82.88 114.61,82.88 114.75,82.88 114.90,82.88 115.04,82.88 115.19,82.88 115.33,82.88 115.48,82.88 115.63,82.88 115.78,82.88 115.93,82.88 116.08,82.88 116.23,82.88 116.38,82.88 116.54,82.88 116.69,82.88 116.84,82.88 117.00,82.88 115.90,89.36 116.06,89.36 116.21,89.36 116.37,89.36 116.52,89.36 116.68,89.36 116.84,89.36 117.00,89.36 115.88,95.84 116.04,95.84 116.19,95.84 116.35,95.84 116.51,95.84 116.67,95.84 116.84,95.84 117.00,95.84 117.16,95.84 116.01,102.32 116.17,102.32 116.34,102.32 116.50,102.32 116.67,102.32 116.83,102.32 117.00,102.32 117.17,102.32 117.34,102.32 117.51,102.32 117.68,102.32 117.85,102.32 118.02,102.32 118.20,102.32 118.38,102.32 118.55,102.32 118.73,102.32 117.52,108.80 117.70,108.80 116.48,115.28 116.65,115.28 116.82,115.28 117.00,115.28 117.18,115.28 117.35,115.28 117.53,115.28 117.71,115.28 117.90,115.28 118.08,115.28 118.26,115.28 118.45,115.28 118.63,115.28 118.82,115.28 119.01,115.28 119.20,115.28 119.39,115.28 119.58,115.28 119.78,115.28 119.97,115.28 120.17,115.28 120.37,115.28 120.57,115.28 120.77,115.28 120.97,115.28 121.17,115.28 121.38,115.28 121.58,115.28 120.26,121.76 120.46,121.76 120.67,121.76 120.87,121.76 121.08,121.76 121.29,121.76 121.50,121.76 121.71,121.76 121.93,121.76 122.14,121.76 122.36,121.76 122.58,121.76 122.80,121.76 123.02,121.76 123.25,121.76 123.47,121.76 123.70,121.76 122.30,128.24 122.52,128.24 122.75,128.24 122.97,128.24 123.20,128.24 123.43,128.24 123.67,128.24 123.90,128.24 122.46,134.72 122.69,134.72 122.92,134.72 123.16,134.72 123.40,134.72 123.63,134.72 123.88,134.72 124.12,134.72 124.36,134.72 124.61,134.72 124.86,134.72 125.11,134.72 125.36,134.72 125.61,134.72 125.87,134.72 126.13,134.72 124.60,141.20 124.86,141.20 125.11,141.20 125.37,141.20 125.64,141.20 125.90,141.20 126.17,141.20 126.44,141.20 126.71,141.20 126.98,141.20 127.25,141.20 127.53,141.20 127.81,141.20 128.09,141.20 128.38,141.20 128.67,141.20 128.96,141.20 129.25,141.20 129.54,141.20 129.84,141.20 130.14,141.20 130.44,141.20 130.75,141.20 131.06,141.20 131.37,141.20 131.68,141.20 132.00,141.20 132.32,141.20 132.64,141.20 132.97,141.20 133.30,141.20 133.63,141.20 133.96,141.20 134.30,141.20 134.64,141.20 134.99,141.20 135.33,141.20 133.58,147.68 133.92,147.68 134.27,147.68 134.62,147.68 134.98,147.68 135.33,147.68 135.69,147.68 136.06,147.68 136.43,147.68 136.80,147.68 134.96,154.16 135.33,154.16 135.71,154.16 136.08,154.16 136.46,154.16 136.85,154.16 137.23,154.16 137.62,154.16 138.02,154.16 138.42,154.16 138.83,154.16 139.23,154.16 139.65,154.16 140.06,154.16 140.49,154.16 140.91,154.16 141.34,154.16 141.78,154.16 142.22,154.16 142.67,154.16 143.12,154.16 143.57,154.16 144.03,154.16 144.50,154.16 144.97,154.16 145.45,154.16 145.93,154.16 146.42,154.16 146.91,154.16 147.41,154.16 145.31,160.64 145.81,160.64 143.68,167.12 144.17,167.12 144.67,167.12 145.17,167.12 145.68,167.12 146.20,167.12 146.72,167.12 147.25,167.12 147.79,167.12 145.54,173.60 146.08,173.60 143.79,180.08 144.32,180.08 144.86,180.08 145.40,180.08 145.95,180.08 146.50,180.08 147.07,180.08 147.64,180.08 148.22,180.08 148.80,180.08 149.40,180.08 150.00,180.08 147.56,186.56 148.15,186.56 148.76,186.56 149.38,186.56 150.00,186.56 150.63,186.56 148.09,193.04 148.72,193.04 149.35,193.04 150.00,193.04 150.66,193.04 151.32,193.04 152.00,193.04 152.69,193.04 153.38,193.04 154.09,193.04 154.81,193.04 155.54,193.04 152.79,199.52 150.00,206.00 150.71,206.00 151.43,206.00 148.56,212.48 149.27,212.48 146.33,218.96 147.04,218.96 147.76,218.96 148.50,218.96 149.24,218.96 150.00,218.96 150.77,218.96 151.56,218.96 152.36,218.96 153.17,218.96 154.00,218.96 154.84,218.96 155.70,218.96 156.58,218.96 157.47,218.96 158.38,218.96 159.31,218.96 160.25,218.96 161.22,218.96 157.84,225.44 158.80,225.44 159.78,225.44 160.78,225.44 161.79,225.44 162.83,225.44 159.26,231.92 155.62,238.40 156.62,238.40 157.65,238.40 158.70,238.40 159.78,238.40 160.88,238.40 162.00,238.40 163.15,238.40 164.33,238.40 160.35,244.88 161.52,244.88 162.72,244.88 163.95,244.88 165.21,244.88 166.50,244.88 167.82,244.88 169.18,244.88 164.86,251.36 166.21,251.36 161.73,257.84 163.08,257.84 158.44,264.32 159.78,264.32 161.15,264.32 162.57,264.32 164.03,264.32 159.06,270.80 160.51,270.80 162.00,270.80 163.54,270.80 165.12,270.80 159.78,277.28 161.35,277.28 155.77,283.76 157.33,283.76 158.95,283.76 160.62,283.76 162.35,283.76 164.14,283.76 166.00,283.76 167.93,283.76 161.62,290.24 155.08,296.72 156.90,296.72 158.80,296.72 151.80,303.20 144.50,309.68 146.26,309.68 148.09,309.68 150.00,309.68 152.00,309.68 143.86,316.16 145.81,316.16 137.12,322.64 139.00,322.64 140.97,322.64 143.05,322.64 145.24,322.64 147.56,322.64 137.43,329.12 126.71,335.60 128.67,335.60 130.75,335.60 132.97,335.60 135.33,335.60 137.86,335.60 140.57,335.60 127.19,342.08 129.69,342.08 132.40,342.08 135.33,342.08 119.39,348.56 122.00,348.56 124.86,348.56 106.00,355.04 108.32,355.04 110.89,355.04 113.76,355.04 117.00,355.04 120.67,355.04 124.86,355.04 129.69,355.04 135.33,355.04 142.00,355.04 150.00,355.04 159.78,355.04 172.00,355.04 187.71,355.04 208.67,355.04 238.00,355.04 282.00,355.04 208.67,361.52 282.00,361.52 502.00,361.52 502.00,368.00" fill="none" stroke="#2563eb" stroke-width="2.5"/>
<polyline points="84.07,44.00 84.09,44.00 84.11,44.00 84.13,44.00 84.16,44.00 84.18,44.00 84.20,44.00 84.22,44.00 84.24,44.00 84.27,44.00 84.29,44.00 84.31,44.00 84.34,44.00 84.36,44.00 84.38,44.00 84.40,44.00 84.43,44.00 84.45,44.00 84.47,44.00 84.49,44.00 84.52,44.00 84.54,44.00 84.56,44.00 84.59,44.00 84.61,44.00 84.63,44.00 84.66,44.00 84.68,44.00 84.70,44.00 84.73,44.00 84.75,44.00 84.77,44.00 84.80,44.00 84.82,44.00 84.85,44.00 84.87,44.00 84.89,44.00 84.92,44.00 84.94,44.00 84.96,44.00 84.99,44.00 85.01,44.00 85.04,44.00 85.06,44.00 85.08,44.00 85.11,44.00 85.13,44.00 85.16,44.00 85.18,44.00 85.21,44.00 85.23,44.00 85.26,44.00 85.28,44.00 85.31,44.00 85.33,44.00 85.35,44.00 85.38,44.00 85.40,44.00 85.43,44.00 85.45,44.00 85.48,44.00 85.50,44.00 85.53,44.00 85.55,44.00 85.58,44.00 85.61,44.00 85.63,44.00 85.66,44.00 85.68,44.00 85.71,44.00 85.73,44.00 85.76,44.00 85.78,44.00 85.81,44.00 85.84,44.00 85.86,44.00 85.89,44.00 85.91,44.00 85.94,44.00 85.97,44.00 85.99,44.00 86.02,44.00 86.04,44.00 86.07,44.00 86.10,44.00 86.12,44.00 86.15,44.00 86.18,44.00 86.20,44.00 86.23,44.00 86.26,44.00 86.28,44.00 86.31,44.00 86.34,44.00 86.36,44.00 86.39,44.00 86.42,44.00 86.44,44.00 86.47,44.00 86.50,44.00 86.53,44.00 86.55,44.00 86.58,44.00 86.61,44.00 86.64,44.00 86.66,44.00 86.69,44.00 86.72,44.00 86.75,44.00 86.77,44.00 86.80,44.00 86.83,44.00 86.86,44.00 86.89,44.00 86.92,44.00 86.94,44.00 86.97,44.00 87.00,44.00 87.03,44.00 87.06,44.00 87.09,44.00 87.11,44.00 87.14,44.00 87.17,44.00 87.20,44.00 87.23,44.00 87.26,44.00 87.29,44.00 87.32,44.00 87.35,44.00 87.37,44.00 87.40,44.00 87.43,44.00 87.46,44.00 87.49,44.00 87.52,44.00 87.55,44.00 87.58,44.00 87.61,44.00 87.64,44.00 87.67,44.00 87.70,44.00 87.73,44.00 87.76,44.00 87.79,44.00 87.82,44.00 87.85,44.00 87.88,44.00 87.91,44.00 87.94,44.00 87.97,44.00 88.00,44.00 88.04,44.00 88.07,44.00 88.10,44.00 88.13,44.00 88.16,44.00 88.19,44.00 88.22,44.00 88.25,44.00 88.28,44.00 88.32,44.00 88.35,44.00 88.38,44.00 88.41,44.00 88.44,44.00 88.47,44.00 88.51,44.00 88.54,44.00 88.57,44.00 88.60,44.00 88.63,44.00 88.67,44.00 88.70,44.00 88.73,44.00 88.76,44.00 88.80,44.00 88.83,44.00 88.86,44.00 88.89,44.00 88.93,44.00 88.96,44.00 88.99,44.00 89.03,44.00 89.06,44.00 89.09,44.00 89.13,44.00 89.16,44.00 89.19,44.00 89.23,44.00 89.26,44.00 89.30,44.00 89.33,44.00 89.36,44.00 89.40,44.00 89.43,44.00 89.47,44.00 89.50,44.00 89.53,44.00 89.57,44.00 89.60,44.00 89.64,44.00 89.67,44.00 89.71,44.00 89.74,44.00 89.78,44.00 89.81,44.00 89.85,44.00 89.88,44.00 89.92,44.00 89.95,44.00 89.99,44.00 90.03,44.00 90.06,44.00 90.10,44.00 90.13,44.00 90.17,44.00 90.21,44.00 90.24,44.00 90.28,44.00 90.31,44.00 90.35,44.00 90.39,44.00 90.42,44.00 90.46,44.00 90.50,44.00 90.53,44.00 90.57,44.00 90.61,44.00 90.65,44.00 90.68,44.00 90.72,44.00 90.76,44.00 90.80,44.00 90.83,44.00 90.87,44.00 90.91,44.00 90.95,44.00 90.99,44.00 91.02,44.00 91.06,44.00 91.10,44.00 91.14,44.00 91.18,44.00 91.22,44.00 91.26,44.00 91.29,44.00 91.33,44.00 91.37,44.00 91.41,44.00 91.45,44.00 91.49,44.00 91.53,44.00 91.57,44.00 91.61,44.00 91.65,44.00 91.69,44.00 91.73,44.00 91.77,44.00 91.81,44.00 91.85,44.00 91.89,44.00 91.93,44.00 91.97,44.00 92.01,44.00 92.05,44.00 92.10,44.00 92.14,44.00 92.18,44.00 92.22,44.00 92.26,44.00 92.30,44.00 92.34,44.00 92.39,44.00 92.43,44.00 92.47,44.00 92.51,44.00 92.56,44.00 92.60,44.00 92.64,44.00 92.68,44.00 92.73,44.00 92.77,44.00 92.81,44.00 92.86,44.00 92.90,44.00 92.94,44.00 92.99,44.00 93.03,44.00 93.07,44.00 93.12,44.00 93.16,44.00 93.21,44.00 93.25,44.00 93.29,44.00 93.34,44.00 93.38,44.00 93.43,44.00 93.47,44.00 93.52,44.00 93.56,44.00 93.61,44.00 93.65,44.00 93.70,44.00 93.75,44.00 93.79,44.00 93.84,44.00 93.88,44.00 93.93,44.00 93.98,44.00 94.02,44.00 94.07,44.00 94.12,44.00 94.16,44.00 94.21,44.00 94.26,44.00 94.31,44.00 94.35,44.00 94.40,44.00 94.45,44.00 94.50,44.00 94.54,44.00 94.59,44.00 94.64,44.00 94.69,44.00 94.74,44.00 94.79,44.00 94.84,44.00 94.88,44.00 94.93,44.00 94.98,44.00 95.03,44.00 95.08,44.00 95.13,44.00 95.18,44.00 95.23,44.00 95.28,44.00 95.33,44.00 95.38,44.00 95.43,44.00 95.49,44.00 95.54,44.00 95.59,44.00 95.64,44.00 95.69,44.00 95.74,44.00 95.79,44.00 95.85,44.00 95.90,44.00 95.95,44.00 96.00,44.00 96.06,44.00 96.11,44.00 96.16,44.00 96.21,44.00 96.27,44.00 96.32,44.00 96.38,44.00 96.43,44.00 96.48,44.00 96.54,44.00 96.59,44.00 96.65,44.00 96.70,44.00 96.76,44.00 96.81,44.00 96.87,44.00 96.92,44.00 96.98,44.00 97.03,44.00 97.09,44.00 97.14,44.00 97.20,44.00 97.26,44.00 97.31,44.00 97.37,44.00 97.43,44.00 97.48,44.00 97.54,44.00 97.60,44.00 97.66,44.00 97.71,44.00 97.77,44.00 97.83,44.00 97.89,44.00 97.95,44.00 98.01,44.00 98.07,44.00 98.12,44.00 98.18,44.00 98.24,44.00 98.30,44.00 98.36,44.00 98.42,44.00 98.48,44.00 98.54,44.00 97.87,50.48 97.93,50.48 97.99,50.48 98.05,50.48 98.11,50.48 98.17,50.48 98.24,50.48 98.30,50.48 98.36,50.48 98.42,50.48 98.48,50.48 98.54,50.48 98.60,50.48 98.67,50.48 98.73,50.48 98.79,50.48 98.85,50.48 98.92,50.48 98.98,50.48 99.04,50.48 99.11,50.48 99.17,50.48 99.24,50.48 99.30,50.48 99.37,50.48 99.43,50.48 99.50,50.48 99.56,50.48 99.63,50.48 99.69,50.48 99.76,50.48 99.82,50.48 99.89,50.48 99.96,50.48 100.02,50.48 100.09,50.48 100.16,50.48 100.23,50.48 100.29,50.48 100.36,50.48 100.43,50.48 100.50,50.48 100.57,50.48 100.64,50.48 100.71,50.48 100.78,50.48 100.85,50.48 100.92,50.48 100.99,50.48 101.06,50.48 101.13,50.48 101.20,50.48 101.27,50.48 101.34,50.48 101.41,50.48 101.49,50.48 101.56,50.48 101.63,50.48 101.71,50.48 101.78,50.48 101.85,50.48 101.93,50.48 102.00,50.48 102.07,50.48 102.15,50.48 102.22,50.48 102.30,50.48 102.37,50.48 102.45,50.48 102.53,50.48 102.60,50.48 102.68,50.48 102.76,50.48 102.83,50.48 102.91,50.48 102.99,50.48 103.07,50.48 103.15,50.48 103.22,50.48 103.30,50.48 103.38,50.48 103.46,50.48 103.54,50.48 103.62,50.48 103.70,50.48 103.78,50.48 103.86,50.48 103.95,50.48 104.03,50.48 104.11,50.48 104.19,50.48 104.27,50.48 104.36,50.48 104.44,50.48 104.52,50.48 104.61,50.48 104.69,50.48 104.78,50.48 104.86,50.48 104.95,50.48 105.03,50.48 105.12,50.48 105.21,50.48 105.29,50.48 105.38,50.48 105.47,50.48 105.56,50.48 105.64,50.48 105.73,50.48 105.82,50.48 105.01,56.96 105.10,56.96 105.19,56.96 105.28,56.96 105.37,56.96 105.46,56.96 105.55,56.96 104.73,63.44 104.82,63.44 104.90,63.44 104.99,63.44 105.08,63.44 105.17,63.44 105.26,63.44 105.35,63.44 105.45,63.44 105.54,63.44 105.63,63.44 105.72,63.44 105.81,63.44 105.91,63.44 106.00,63.44 106.09,63.44 106.19,63.44 106.28,63.44 106.38,63.44 106.47,63.44 106.57,63.44 106.67,63.44 106.76,63.44 106.86,63.44 106.96,63.44 107.05,63.44 107.15,63.44 107.25,63.44 107.35,63.44 107.45,63.44 107.55,63.44 107.65,63.44 107.75,63.44 107.85,63.44 107.96,63.44 108.06,63.44 108.16,63.44 108.26,63.44 108.37,63.44 108.47,63.44 108.58,63.44 108.68,63.44 107.79,69.92 107.90,69.92 108.00,69.92 108.10,69.92 108.21,69.92 108.32,69.92 108.42,69.92 108.53,69.92 108.64,69.92 108.74,69.92 108.85,69.92 108.96,69.92 109.07,69.92 109.18,69.92 109.29,69.92 109.40,69.92 109.51,69.92 109.62,69.92 109.74,69.92 109.85,69.92 109.96,69.92 110.08,69.92 110.19,69.92 110.31,69.92 110.42,69.92 110.54,69.92 110.65,69.92 110.77,69.92 110.89,69.92 111.01,69.92 111.13,69.92 111.25,69.92 111.37,69.92 111.49,69.92 111.61,69.92 111.73,69.92 111.85,69.92 111.98,69.92 112.10,69.92 112.22,69.92 112.35,69.92 112.47,69.92 112.60,69.92 112.73,69.92 112.85,69.92 112.98,69.92 113.11,69.92 113.24,69.92 113.37,69.92 113.50,69.92 113.63,69.92 113.76,69.92 113.90,69.92 112.90,76.40 113.03,76.40 113.16,76.40 113.30,76.40 113.43,76.40 113.56,76.40 113.70,76.40 113.83,76.40 113.97,76.40 114.11,76.40 114.24,76.40 114.38,76.40 114.52,76.40 114.66,76.40 114.80,76.40 114.94,76.40 115.08,76.40 115.23,76.40 115.37,76.40 115.51,76.40 115.66,76.40 115.80,76.40 115.95,76.40 116.10,76.40 116.25,76.40 116.40,76.40 116.55,76.40 116.70,76.40 116.85,76.40 117.00,76.40 117.15,76.40 117.31,76.40 117.46,76.40 117.62,76.40 117.77,76.40 117.93,76.40 118.09,76.40 117.00,82.88 117.16,82.88 117.31,82.88 117.47,82.88 117.63,82.88 117.79,82.88 117.95,82.88 118.12,82.88 118.28,82.88 118.44,82.88 118.61,82.88 117.48,89.36 117.65,89.36 116.51,95.84 116.67,95.84 116.84,95.84 117.00,95.84 117.16,95.84 117.33,95.84 117.50,95.84 117.66,95.84 117.83,95.84 118.00,95.84 118.17,95.84 118.34,95.84 118.51,95.84 118.69,95.84 118.86,95.84 119.04,95.84 119.21,95.84 119.39,95.84 119.57,95.84 119.75,95.84 119.93,95.84 120.11,95.84 120.30,95.84 120.48,95.84 120.67,95.84 120.85,95.84 121.04,95.84 121.23,95.84 121.42,95.84 121.61,95.84 121.81,95.84 122.00,95.84 122.20,95.84 122.39,95.84 122.59,95.84 122.79,95.84 122.99,95.84 123.19,95.84 123.40,95.84 123.60,95.84 123.81,95.84 124.01,95.84 124.22,95.84 124.43,95.84 124.64,95.84 124.86,95.84 125.07,95.84 125.29,95.84 125.51,95.84 124.21,102.32 122.90,108.80 123.11,108.80 123.32,108.80 123.54,108.80 122.21,115.28 122.42,115.28 121.08,121.76 121.29,121.76 121.50,121.76 120.14,128.24 120.35,128.24 120.56,128.24 120.77,128.24 120.99,128.24 121.20,128.24 121.42,128.24 121.63,128.24 121.85,128.24 122.07,128.24 122.30,128.24 122.52,128.24 122.75,128.24 122.97,128.24 123.20,128.24 123.43,128.24 123.67,128.24 123.90,128.24 124.14,128.24 124.38,128.24 124.62,128.24 124.86,128.24 125.10,128.24 125.35,128.24 125.59,128.24 125.84,128.24 126.09,128.24 126.35,128.24 126.60,128.24 126.86,128.24 127.12,128.24 127.38,128.24 127.65,128.24 127.91,128.24 128.18,128.24 128.45,128.24 128.72,128.24 129.00,128.24 129.27,128.24 129.55,128.24 128.00,134.72 128.28,134.72 128.55,134.72 128.84,134.72 129.12,134.72 129.40,134.72 127.81,141.20 128.09,141.20 128.38,141.20 128.67,141.20 128.96,141.20 129.25,141.20 127.61,147.68 127.90,147.68 128.19,147.68 128.49,147.68 128.79,147.68 129.09,147.68 129.39,147.68 129.69,147.68 130.00,147.68 130.31,147.68 128.61,154.16 128.91,154.16 129.22,154.16 129.53,154.16 129.85,154.16 130.17,154.16 128.42,160.64 128.73,160.64 129.05,160.64 129.37,160.64 129.69,160.64 130.02,160.64 130.35,160.64 130.68,160.64 131.02,160.64 129.19,167.12 129.52,167.12 127.67,173.60 128.00,173.60 128.33,173.60 128.67,173.60 126.77,180.08 127.10,180.08 127.44,180.08 127.77,180.08 128.11,180.08 128.46,180.08 128.81,180.08 129.16,180.08 129.51,180.08 129.87,180.08 130.24,180.08 130.60,180.08 130.97,180.08 128.96,186.56 129.32,186.56 129.69,186.56 130.07,186.56 130.44,186.56 130.83,186.56 131.21,186.56 129.12,193.04 129.50,193.04 129.89,193.04 130.28,193.04 130.67,193.04 131.07,193.04 131.47,193.04 131.88,193.04 132.30,193.04 132.71,193.04 133.14,193.04 133.57,193.04 134.00,193.04 134.44,193.04 134.88,193.04 135.33,193.04 135.79,193.04 136.25,193.04 136.72,193.04 137.19,193.04 134.87,199.52 135.33,199.52 132.97,206.00 133.43,206.00 133.90,206.00 134.37,206.00 134.85,206.00 135.33,206.00 135.83,206.00 136.32,206.00 136.83,206.00 137.34,206.00 137.86,206.00 138.39,206.00 138.92,206.00 139.46,206.00 140.01,206.00 140.57,206.00 141.14,206.00 141.71,206.00 142.29,206.00 142.88,206.00 143.48,206.00 144.09,206.00 141.40,212.48 142.00,212.48 139.25,218.96 139.85,218.96 137.04,225.44 137.62,225.44 138.22,225.44 138.83,225.44 135.92,231.92 136.52,231.92 137.12,231.92 137.74,231.92 138.36,231.92 139.00,231.92 139.65,231.92 140.31,231.92 140.97,231.92 141.66,231.92 142.35,231.92 143.05,231.92 143.77,231.92 144.50,231.92 145.24,231.92 146.00,231.92 146.77,231.92 143.48,238.40 144.24,238.40 145.02,238.40 145.81,238.40 146.62,238.40 147.44,238.40 148.27,238.40 149.13,238.40 150.00,238.40 150.89,238.40 151.80,238.40 152.72,238.40 153.67,238.40 154.63,238.40 155.62,238.40 156.62,238.40 152.87,244.88 149.03,251.36 150.00,251.36 146.04,257.84 147.00,257.84 142.92,264.32 143.86,264.32 144.82,264.32 145.81,264.32 146.82,264.32 147.85,264.32 148.91,264.32 150.00,264.32 145.54,270.80 146.62,270.80 147.71,270.80 148.84,270.80 150.00,270.80 151.19,270.80 152.41,270.80 153.67,270.80 154.96,270.80 150.00,277.28 151.28,277.28 152.59,277.28 153.94,277.28 155.33,277.28 156.77,277.28 151.38,283.76 152.79,283.76 154.26,283.76 148.56,290.24 150.00,290.24 144.03,296.72 145.45,296.72 146.91,296.72 148.43,296.72 150.00,296.72 151.63,296.72 153.32,296.72 146.62,303.20 148.27,303.20 150.00,303.20 151.80,303.20 153.67,303.20 155.62,303.20 157.65,303.20 159.78,303.20 162.00,303.20 164.33,303.20 166.76,303.20 169.32,303.20 172.00,303.20 174.82,303.20 177.79,303.20 180.92,303.20 184.22,303.20 187.71,303.20 178.47,309.68 182.00,309.68 172.00,316.16 175.55,316.16 179.33,316.16 183.38,316.16 187.71,316.16 192.37,316.16 197.38,316.16 202.80,316.16 190.33,322.64 176.78,329.12 182.00,329.12 187.71,329.12 194.00,329.12 177.79,335.60 159.78,342.08 165.53,342.08 172.00,342.08 179.33,342.08 187.71,342.08 197.38,342.08 208.67,342.08 182.00,348.56 194.00,348.56 208.67,348.56 227.00,348.56 250.57,348.56 282.00,348.56 238.00,355.04 172.00,361.52 208.67,361.52 62.00,368.00 62.00,368.00 502.00,368.00" fill="none" stroke="#dc2626" stroke-width="2.5"/>
<polyline points="84.07,44.00 84.09,44.00 84.11,44.00 84.13,44.00 84.16,44.00 84.18,44.00 84.20,44.00 84.22,44.00 84.24,44.00 84.27,44.00 84.29,44.00 84.31,44.00 84.34,44.00 84.36,44.00 84.38,44.00 84.40,44.00 84.43,44.00 84.45,44.00 84.47,44.00 84.49,44.00 84.52,44.00 84.54,44.00 84.56,44.00 84.59,44.00 84.61,44.00 84.63,44.00 84.66,44.00 84.68,44.00 84.70,44.00 84.73,44.00 84.75,44.00 84.77,44.00 84.80,44.00 84.82,44.00 84.85,44.00 84.87,44.00 84.89,44.00 84.92,44.00 84.94,44.00 84.96,44.00 84.99,44.00 85.01,44.00 85.04,44.00 85.06,44.00 85.08,44.00 85.11,44.00 85.13,44.00 85.16,44.00 85.18,44.00 85.21,44.00 85.23,44.00 85.26,44.00 85.28,44.00 85.31,44.00 85.33,44.00 85.35,44.00 85.38,44.00 85.40,44.00 85.43,44.00 85.45,44.00 85.48,44.00 85.50,44.00 85.53,44.00 85.55,44.00 85.58,44.00 85.61,44.00 85.63,44.00 85.66,44.00 85.68,44.00 85.71,44.00 85.73,44.00 85.76,44.00 85.78,44.00 85.81,44.00 85.84,44.00 85.86,44.00 85.89,44.00 85.91,44.00 85.94,44.00 85.97,44.00 85.99,44.00 86.02,44.00 86.04,44.00 86.07,44.00 86.10,44.00 86.12,44.00 86.15,44.00 86.18,44.00 86.20,44.00 86.23,44.00 86.26,44.00 86.28,44.00 86.31,44.00 86.34,44.00 86.36,44.00 86.39,44.00 86.42,44.00 86.44,44.00 86.47,44.00 86.50,44.00 86.53,44.00 86.55,44.00 86.58,44.00 86.61,44.00 86.64,44.00 86.66,44.00 86.69,44.00 86.72,44.00 86.75,44.00 86.77,44.00 86.80,44.00 86.83,44.00 86.86,44.00 86.89,44.00 86.92,44.00 86.94,44.00 86.97,44.00 87.00,44.00 87.03,44.00 87.06,44.00 87.09,44.00 87.11,44.00 87.14,44.00 87.17,44.00 87.20,44.00 87.23,44.00 87.26,44.00 87.29,44.00 87.32,44.00 87.35,44.00 87.37,44.00 87.40,44.00 87.43,44.00 87.46,44.00 87.49,44.00 87.52,44.00 87.55,44.00 87.58,44.00 87.61,44.00 87.64,44.00 87.67,44.00 87.70,44.00 87.73,44.00 87.76,44.00 87.79,44.00 87.82,44.00 87.85,44.00 87.88,44.00 87.91,44.00 87.94,44.00 87.97,44.00 88.00,44.00 88.04,44.00 88.07,44.00 88.10,44.00 88.13,44.00 88.16,44.00 88.19,44.00 88.22,44.00 88.25,44.00 88.28,44.00 88.32,44.00 88.35,44.00 88.38,44.00 88.41,44.00 88.44,44.00 88.47,44.00 88.51,44.00 88.54,44.00 88.57,44.00 88.60,44.00 88.63,44.00 88.67,44.00 88.70,44.00 88.73,44.00 88.76,44.00 88.80,44.00 88.83,44.00 88.86,44.00 88.89,44.00 88.93,44.00 88.96,44.00 88.99,44.00 89.03,44.00 89.06,44.00 89.09,44.00 89.13,44.00 89.16,44.00 89.19,44.00 89.23,44.00 89.26,44.00 89.30,44.00 89.33,44.00 89.36,44.00 89.40,44.00 89.43,44.00 89.47,44.00 89.50,44.00 89.53,44.00 89.57,44.00 89.60,44.00 89.64,44.00 89.67,44.00 89.71,44.00 89.74,44.00 89.78,44.00 89.81,44.00 89.85,44.00 89.88,44.00 89.92,44.00 89.95,44.00 89.99,44.00 90.03,44.00 90.06,44.00 90.10,44.00 90.13,44.00 90.17,44.00 90.21,44.00 90.24,44.00 90.28,44.00 90.31,44.00 90.35,44.00 90.39,44.00 90.42,44.00 90.46,44.00 90.50,44.00 90.53,44.00 90.57,44.00 90.61,44.00 90.65,44.00 90.68,44.00 90.72,44.00 90.76,44.00 90.80,44.00 90.83,44.00 90.87,44.00 90.91,44.00 90.95,44.00 90.99,44.00 91.02,44.00 91.06,44.00 91.10,44.00 91.14,44.00 91.18,44.00 91.22,44.00 91.26,44.00 91.29,44.00 91.33,44.00 91.37,44.00 91.41,44.00 91.45,44.00 91.49,44.00 91.53,44.00 91.57,44.00 91.61,44.00 91.65,44.00 91.69,44.00 91.73,44.00 91.77,44.00 91.81,44.00 91.85,44.00 91.89,44.00 91.93,44.00 91.97,44.00 92.01,44.00 92.05,44.00 92.10,44.00 92.14,44.00 92.18,44.00 92.22,44.00 92.26,44.00 92.30,44.00 92.34,44.00 92.39,44.00 92.43,44.00 92.47,44.00 92.51,44.00 92.56,44.00 92.60,44.00 92.64,44.00 92.68,44.00 92.73,44.00 92.77,44.00 92.81,44.00 92.86,44.00 92.90,44.00 92.94,44.00 92.99,44.00 93.03,44.00 93.07,44.00 93.12,44.00 93.16,44.00 93.21,44.00 93.25,44.00 93.29,44.00 93.34,44.00 93.38,44.00 93.43,44.00 93.47,44.00 93.52,44.00 93.56,44.00 93.61,44.00 93.65,44.00 93.70,44.00 93.75,44.00 93.79,44.00 93.84,44.00 93.88,44.00 93.93,44.00 93.98,44.00 94.02,44.00 94.07,44.00 94.12,44.00 94.16,44.00 94.21,44.00 94.26,44.00 94.31,44.00 94.35,44.00 94.40,44.00 94.45,44.00 94.50,44.00 94.54,44.00 94.59,44.00 94.64,44.00 94.69,44.00 94.74,44.00 94.79,44.00 94.84,44.00 94.88,44.00 94.93,44.00 94.98,44.00 95.03,44.00 95.08,44.00 95.13,44.00 95.18,44.00 95.23,44.00 95.28,44.00 95.33,44.00 95.38,44.00 95.43,44.00 95.49,44.00 95.54,44.00 95.59,44.00 95.64,44.00 95.69,44.00 95.74,44.00 95.79,44.00 95.85,44.00 95.90,44.00 95.95,44.00 96.00,44.00 96.06,44.00 96.11,44.00 96.16,44.00 96.21,44.00 96.27,44.00 96.32,44.00 96.38,44.00 96.43,44.00 96.48,44.00 96.54,44.00 96.59,44.00 96.65,44.00 96.70,44.00 96.76,44.00 96.81,44.00 96.87,44.00 96.92,44.00 96.98,44.00 97.03,44.00 97.09,44.00 97.14,44.00 97.20,44.00 97.26,44.00 97.31,44.00 97.37,44.00 97.43,44.00 97.48,44.00 97.54,44.00 97.60,44.00 97.66,44.00 97.71,44.00 97.77,44.00 97.83,44.00 97.89,44.00 97.95,44.00 98.01,44.00 98.07,44.00 98.12,44.00 98.18,44.00 98.24,44.00 98.30,44.00 98.36,44.00 98.42,44.00 98.48,44.00 98.54,44.00 98.61,44.00 98.67,44.00 98.73,44.00 98.79,44.00 98.85,44.00 98.91,44.00 98.97,44.00 99.04,44.00 99.10,44.00 99.16,44.00 99.23,44.00 99.29,44.00 99.35,44.00 99.41,44.00 99.48,44.00 99.54,44.00 99.61,44.00 99.67,44.00 99.74,44.00 99.80,44.00 99.87,44.00 99.93,44.00 100.00,44.00 100.06,44.00 100.13,44.00 100.19,44.00 100.26,44.00 100.33,44.00 100.39,44.00 100.46,44.00 100.53,44.00 100.60,44.00 100.66,44.00 100.73,44.00 100.80,44.00 100.87,44.00 100.94,44.00 101.01,44.00 101.08,44.00 101.15,44.00 101.22,44.00 101.29,44.00 101.36,44.00 101.43,44.00 101.50,44.00 101.57,44.00 101.64,44.00 101.71,44.00 101.78,44.00 101.86,44.00 101.93,44.00 102.00,44.00 102.07,44.00 102.15,44.00 102.22,44.00 102.29,44.00 102.37,44.00 102.44,44.00 102.52,44.00 102.59,44.00 102.67,44.00 102.74,44.00 102.82,44.00 102.89,44.00 102.97,44.00 103.04,44.00 103.12,44.00 103.20,44.00 103.28,44.00 103.35,44.00 103.43,44.00 103.51,44.00 103.59,44.00 103.67,44.00 103.75,44.00 103.83,44.00 103.90,44.00 103.98,44.00 104.07,44.00 104.15,44.00 104.23,44.00 104.31,44.00 104.39,44.00 104.47,44.00 104.55,44.00 104.64,44.00 103.86,50.48 103.09,56.96 103.17,56.96 103.25,56.96 103.33,56.96 103.41,56.96 103.49,56.96 103.57,56.96 103.66,56.96 103.74,56.96 103.82,56.96 103.90,56.96 103.99,56.96 103.20,63.44 103.28,63.44 103.36,63.44 103.44,63.44 103.53,63.44 103.61,63.44 103.69,63.44 103.78,63.44 103.86,63.44 103.95,63.44 104.03,63.44 104.12,63.44 104.20,63.44 104.29,63.44 104.38,63.44 104.46,63.44 104.55,63.44 104.64,63.44 104.73,63.44 104.82,63.44 104.90,63.44 104.99,63.44 105.08,63.44 105.17,63.44 105.26,63.44 105.35,63.44 105.45,63.44 105.54,63.44 105.63,63.44 105.72,63.44 105.81,63.44 105.91,63.44 106.00,63.44 106.09,63.44 106.19,63.44 106.28,63.44 106.38,63.44 106.47,63.44 106.57,63.44 106.67,63.44 106.76,63.44 106.86,63.44 106.96,63.44 107.05,63.44 107.15,63.44 107.25,63.44 107.35,63.44 107.45,63.44 107.55,63.44 107.65,63.44 107.75,63.44 107.85,63.44 107.96,63.44 108.06,63.44 108.16,63.44 108.26,63.44 108.37,63.44 108.47,63.44 108.58,63.44 108.68,63.44 108.79,63.44 108.89,63.44 109.00,63.44 109.11,63.44 109.21,63.44 109.32,63.44 109.43,63.44 109.54,63.44 109.65,63.44 109.76,63.44 109.87,63.44 109.98,63.44 109.07,69.92 109.18,69.92 108.26,76.40 108.37,76.40 108.48,76.40 108.59,76.40 108.70,76.40 108.81,76.40 108.92,76.40 109.03,76.40 109.14,76.40 109.26,76.40 109.37,76.40 109.48,76.40 109.60,76.40 109.71,76.40 109.83,76.40 109.94,76.40 110.06,76.40 110.18,76.40 110.29,76.40 110.41,76.40 110.53,76.40 110.65,76.40 110.77,76.40 110.89,76.40 111.01,76.40 111.13,76.40 111.25,76.40 111.38,76.40 111.50,76.40 111.62,76.40 111.75,76.40 111.87,76.40 112.00,76.40 112.13,76.40 112.25,76.40 112.38,76.40 112.51,76.40 112.64,76.40 112.77,76.40 112.90,76.40 113.03,76.40 113.16,76.40 113.30,76.40 113.43,76.40 113.56,76.40 113.70,76.40 113.83,76.40 113.97,76.40 114.11,76.40 114.24,76.40 114.38,76.40 114.52,76.40 114.66,76.40 114.80,76.40 114.94,76.40 115.08,76.40 115.23,76.40 115.37,76.40 115.51,76.40 115.66,76.40 115.80,76.40 115.95,76.40 116.10,76.40 116.25,76.40 116.40,76.40 116.55,76.40 116.70,76.40 116.85,76.40 117.00,76.40 117.15,76.40 117.31,76.40 117.46,76.40 117.62,76.40 116.54,82.88 116.69,82.88 116.84,82.88 117.00,82.88 117.16,82.88 117.31,82.88 117.47,82.88 117.63,82.88 117.79,82.88 117.95,82.88 118.12,82.88 118.28,82.88 118.44,82.88 118.61,82.88 118.77,82.88 118.94,82.88 119.11,82.88 119.28,82.88 119.45,82.88 119.62,82.88 119.79,82.88 119.96,82.88 120.14,82.88 120.31,82.88 120.49,82.88 120.67,82.88 120.84,82.88 121.02,82.88 121.20,82.88 121.39,82.88 121.57,82.88 121.75,82.88 121.94,82.88 122.12,82.88 122.31,82.88 122.50,82.88 122.69,82.88 122.88,82.88 123.07,82.88 123.27,82.88 123.46,82.88 122.25,89.36 122.45,89.36 122.64,89.36 121.42,95.84 121.61,95.84 121.81,95.84 122.00,95.84 122.20,95.84 122.39,95.84 122.59,95.84 122.79,95.84 122.99,95.84 123.19,95.84 123.40,95.84 123.60,95.84 123.81,95.84 124.01,95.84 124.22,95.84 124.43,95.84 124.64,95.84 124.86,95.84 125.07,95.84 125.29,95.84 125.51,95.84 125.72,95.84 125.94,95.84 126.17,95.84 126.39,95.84 126.62,95.84 126.84,95.84 127.07,95.84 127.30,95.84 127.53,95.84 127.77,95.84 128.00,95.84 128.24,95.84 126.89,102.32 127.13,102.32 127.36,102.32 127.60,102.32 127.84,102.32 128.08,102.32 128.32,102.32 128.57,102.32 128.81,102.32 129.06,102.32 129.31,102.32 129.57,102.32 129.82,102.32 130.08,102.32 130.33,102.32 130.59,102.32 129.18,108.80 129.43,108.80 129.69,108.80 128.25,115.28 126.81,121.76 127.06,121.76 125.59,128.24 125.84,128.24 126.09,128.24 126.35,128.24 126.60,128.24 126.86,128.24 127.12,128.24 127.38,128.24 127.65,128.24 127.91,128.24 128.18,128.24 128.45,128.24 128.72,128.24 129.00,128.24 129.27,128.24 129.55,128.24 129.83,128.24 130.12,128.24 130.40,128.24 130.69,128.24 130.98,128.24 131.28,128.24 131.57,128.24 131.87,128.24 132.17,128.24 130.57,134.72 130.87,134.72 131.17,134.72 131.47,134.72 131.78,134.72 130.14,141.20 130.44,141.20 130.75,141.20 131.06,141.20 131.37,141.20 131.68,141.20 132.00,141.20 132.32,141.20 132.64,141.20 132.97,141.20 131.26,147.68 131.58,147.68 131.91,147.68 132.23,147.68 132.57,147.68 130.82,154.16 129.05,160.64 129.37,160.64 129.69,160.64 130.02,160.64 130.35,160.64 130.68,160.64 131.02,160.64 131.36,160.64 131.70,160.64 132.05,160.64 132.40,160.64 132.75,160.64 133.11,160.64 133.47,160.64 133.84,160.64 131.95,167.12 132.31,167.12 132.67,167.12 133.04,167.12 131.11,173.60 131.47,173.60 131.84,173.60 132.21,173.60 132.59,173.60 130.60,180.08 130.97,180.08 131.35,180.08 131.73,180.08 132.11,180.08 132.50,180.08 132.89,180.08 133.28,180.08 133.69,180.08 134.09,180.08 134.50,180.08 132.40,186.56 132.80,186.56 133.21,186.56 133.63,186.56 134.05,186.56 134.47,186.56 134.90,186.56 135.33,186.56 135.77,186.56 136.22,186.56 136.67,186.56 137.12,186.56 137.58,186.56 138.05,186.56 138.52,186.56 139.00,186.56 139.48,186.56 139.97,186.56 140.47,186.56 140.97,186.56 141.48,186.56 142.00,186.56 139.65,193.04 140.16,193.04 140.68,193.04 141.20,193.04 141.73,193.04 142.27,193.04 142.82,193.04 143.37,193.04 143.93,193.04 144.50,193.04 145.08,193.04 145.66,193.04 146.26,193.04 146.86,193.04 147.47,193.04 148.09,193.04 148.72,193.04 149.35,193.04 150.00,193.04 147.37,199.52 148.02,199.52 148.67,199.52 145.97,206.00 146.62,206.00 147.27,206.00 147.94,206.00 148.61,206.00 149.30,206.00 146.48,212.48 147.16,212.48 147.85,212.48 148.56,212.48 149.27,212.48 150.00,212.48 150.74,212.48 151.49,212.48 152.26,212.48 149.24,218.96 150.00,218.96 146.91,225.44 147.66,225.44 148.43,225.44 145.24,231.92 146.00,231.92 142.73,238.40 143.48,238.40 144.24,238.40 145.02,238.40 141.62,244.88 142.38,244.88 143.17,244.88 143.96,244.88 144.77,244.88 145.60,244.88 146.44,244.88 147.31,244.88 148.19,244.88 149.08,244.88 150.00,244.88 146.26,251.36 147.16,251.36 148.09,251.36 149.03,251.36 150.00,251.36 146.04,257.84 147.00,257.84 147.98,257.84 148.98,257.84 150.00,257.84 151.05,257.84 152.12,257.84 153.22,257.84 148.91,264.32 150.00,264.32 151.11,264.32 152.26,264.32 147.71,270.80 148.84,270.80 144.13,277.28 139.30,283.76 140.36,283.76 135.33,290.24 136.37,290.24 137.43,290.24 138.52,290.24 139.65,290.24 140.81,290.24 142.00,290.24 143.23,290.24 144.50,290.24 145.81,290.24 147.16,290.24 148.56,290.24 150.00,290.24 151.49,290.24 153.03,290.24 146.91,296.72 148.43,296.72 150.00,296.72 143.48,303.20 145.02,303.20 146.62,303.20 148.27,303.20 150.00,303.20 151.80,303.20 153.67,303.20 146.26,309.68 148.09,309.68 140.22,316.16 142.00,316.16 143.86,316.16 145.81,316.16 147.85,316.16 150.00,316.16 152.26,316.16 154.63,316.16 157.14,316.16 159.78,316.16 162.57,316.16 152.59,322.64 155.33,322.64 144.50,329.12 147.16,329.12 150.00,329.12 153.03,329.12 156.29,329.12 159.78,329.12 163.54,329.12 167.60,329.12 172.00,329.12 176.78,329.12 182.00,329.12 166.76,335.60 150.00,342.08 154.63,342.08 159.78,342.08 139.65,348.56 144.50,348.56 150.00,348.56 156.29,348.56 163.54,348.56 172.00,348.56 182.00,348.56 194.00,348.56 208.67,348.56 172.00,355.04 187.71,355.04 208.67,355.04 150.00,361.52 172.00,361.52 208.67,361.52 62.00,368.00 62.00,368.00 502.00,368.00" fill="none" stroke="#16a34a" stroke-width="2.5"/>
<polyline points="84.07,44.00 84.09,44.00 84.11,44.00 84.13,44.00 84.16,44.00 84.18,44.00 84.20,44.00 84.22,44.00 84.24,44.00 84.27,44.00 84.29,44.00 84.31,44.00 84.34,44.00 84.36,44.00 84.38,44.00 84.40,44.00 84.43,44.00 84.45,44.00 84.47,44.00 84.49,44.00 84.52,44.00 84.56,44.00 84.59,44.00 84.61,44.00 84.63,44.00 84.70,44.00 84.73,44.00 84.77,44.00 84.82,44.00 84.85,44.00 84.87,44.00 84.89,44.00 84.92,44.00 85.04,44.00 85.06,44.00 85.08,44.00 85.11,44.00 85.13,44.00 85.16,44.00 85.18,44.00 85.26,44.00 85.28,44.00 85.31,44.00 84.86,50.48 84.96,50.48 84.99,50.48 85.01,50.48 85.03,50.48 85.06,50.48 85.08,50.48 85.11,50.48 85.13,50.48 85.16,50.48 85.18,50.48 85.21,50.48 85.23,50.48 85.38,50.48 85.41,50.48 85.43,50.48 85.46,50.48 85.51,50.48 85.54,50.48 85.72,50.48 85.77,50.48 85.80,50.48 85.98,50.48 86.04,50.48 86.09,50.48 86.12,50.48 86.14,50.48 86.20,50.48 86.42,50.48 86.44,50.48 86.47,50.48 86.50,50.48 86.53,50.48 86.56,50.48 86.61,50.48 86.67,50.48 86.70,50.48 86.75,50.48 86.78,50.48 86.81,50.48 86.84,50.48 86.87,50.48 86.90,50.48 86.92,50.48 87.07,50.48 87.10,50.48 87.13,50.48 87.16,50.48 87.19,50.48 87.22,50.48 87.25,50.48 87.31,50.48 87.33,50.48 87.36,50.48 87.39,50.48 87.42,50.48 87.45,50.48 88.20,50.48 88.23,50.48 88.26,50.48 88.29,50.48 88.32,50.48 88.36,50.48 88.39,50.48 88.42,50.48 88.45,50.48 88.49,50.48 88.52,50.48 88.55,50.48 88.58,50.48 88.62,50.48 88.68,50.48 88.72,50.48 88.75,50.48 88.78,50.48 88.82,50.48 88.85,50.48 88.92,50.48 88.95,50.48 88.98,50.48 89.02,50.48 89.22,50.48 89.26,50.48 89.29,50.48 89.33,50.48 89.36,50.48 89.40,50.48 89.43,50.48 89.46,50.48 89.50,50.48 89.54,50.48 89.57,50.48 89.61,50.48 89.64,50.48 89.68,50.48 89.71,50.48 89.75,50.48 89.78,50.48 89.86,50.48 89.89,50.48 89.93,50.48 89.96,50.48 90.00,50.48 90.04,50.48 90.07,50.48 90.11,50.48 90.15,50.48 90.18,50.48 90.26,50.48 90.29,50.48 90.37,50.48 90.41,50.48 90.44,50.48 90.48,50.48 90.52,50.48 90.56,50.48 90.59,50.48 90.63,50.48 90.67,50.48 90.79,50.48 90.82,50.48 90.90,50.48 90.94,50.48 90.98,50.48 91.02,50.48 91.06,50.48 91.10,50.48 91.14,50.48 91.17,50.48 91.21,50.48 91.25,50.48 91.29,50.48 91.33,50.48 91.37,50.48 91.74,50.48 91.78,50.48 91.82,50.48 91.86,50.48 91.90,50.48 91.94,50.48 92.03,50.48 92.07,50.48 92.11,50.48 92.15,50.48 92.20,50.48 92.54,50.48 92.58,50.48 92.62,50.48 92.67,50.48 92.71,50.48 92.76,50.48 92.80,50.48 93.11,50.48 93.16,50.48 93.20,50.48 93.25,50.48 93.29,50.48 93.47,50.48 93.52,50.48 93.57,50.48 93.61,50.48 93.66,50.48 93.71,50.48 93.99,50.48 94.04,50.48 94.08,50.48 94.13,50.48 94.18,50.48 94.23,50.48 94.28,50.48 94.32,50.48 94.37,50.48 94.42,50.48 94.47,50.48 94.57,50.48 94.62,50.48 94.72,50.48 94.77,50.48 94.82,50.48 94.92,50.48 94.97,50.48 95.02,50.48 95.07,50.48 95.12,50.48 95.17,50.48 95.22,50.48 95.27,50.48 95.32,50.48 95.43,50.48 95.48,50.48 95.53,50.48 95.58,50.48 95.63,50.48 95.69,50.48 95.74,50.48 95.79,50.48 95.85,50.48 95.90,50.48 95.95,50.48 96.01,50.48 96.06,50.48 96.22,50.48 96.28,50.48 96.33,50.48 96.39,50.48 96.44,50.48 96.50,50.48 96.55,50.48 96.61,50.48 96.66,50.48 96.72,50.48 96.77,50.48 96.83,50.48 96.89,50.48 97.00,50.48 97.06,50.48 97.11,50.48 97.17,50.48 97.23,50.48 97.29,50.48 97.34,50.48 97.40,50.48 97.46,50.48 97.52,50.48 97.58,50.48 97.64,50.48 97.70,50.48 97.75,50.48 97.81,50.48 97.87,50.48 97.93,50.48 97.99,50.48 98.05,50.48 98.11,50.48 98.17,50.48 98.24,50.48 98.30,50.48 98.36,50.48 98.42,50.48 98.48,50.48 98.60,50.48 98.67,50.48 98.73,50.48 98.85,50.48 98.92,50.48 98.98,50.48 99.04,50.48 99.11,50.48 99.17,50.48 99.24,50.48 99.30,50.48 99.37,50.48 99.43,50.48 99.50,50.48 99.56,50.48 99.63,50.48 99.69,50.48 99.76,50.48 99.82,50.48 99.89,50.48 99.96,50.48 100.02,50.48 100.09,50.48 100.16,50.48 100.23,50.48 100.29,50.48 100.36,50.48 100.43,50.48 100.50,50.48 100.57,50.48 100.64,50.48 100.71,50.48 100.78,50.48 100.85,50.48 100.92,50.48 100.99,50.48 101.06,50.48 101.13,50.48 101.20,50.48 101.27,50.48 101.34,50.48 101.41,50.48 101.49,50.48 101.56,50.48 101.63,50.48 101.71,50.48 100.97,56.96 101.04,56.96 101.11,56.96 101.18,56.96 101.26,56.96 101.33,56.96 101.40,56.96 101.48,56.96 101.55,56.96 101.62,56.96 101.70,56.96 101.77,56.96 101.85,56.96 101.92,56.96 102.00,56.96 102.08,56.96 102.15,56.96 102.23,56.96 102.31,56.96 102.38,56.96 102.46,56.96 102.54,56.96 102.62,56.96 102.69,56.96 102.77,56.96 102.85,56.96 102.93,56.96 103.01,56.96 103.09,56.96 103.17,56.96 103.25,56.96 103.33,56.96 103.41,56.96 103.49,56.96 103.57,56.96 103.66,56.96 103.74,56.96 103.82,56.96 103.90,56.96 103.99,56.96 104.07,56.96 104.16,56.96 104.24,56.96 104.32,56.96 104.41,56.96 104.49,56.96 104.58,56.96 104.67,56.96 104.75,56.96 104.84,56.96 104.93,56.96 105.01,56.96 105.10,56.96 105.19,56.96 105.28,56.96 105.37,56.96 105.46,56.96 105.55,56.96 105.64,56.96 105.73,56.96 105.82,56.96 105.91,56.96 106.00,56.96 106.09,56.96 106.18,56.96 106.28,56.96 106.37,56.96 106.46,56.96 106.56,56.96 106.65,56.96 106.75,56.96 106.84,56.96 106.94,56.96 107.03,56.96 106.19,63.44 106.28,63.44 106.38,63.44 106.47,63.44 106.57,63.44 106.67,63.44 106.76,63.44 106.86,63.44 106.96,63.44 107.05,63.44 107.15,63.44 107.25,63.44 107.35,63.44 107.45,63.44 107.55,63.44 107.65,63.44 107.75,63.44 107.85,63.44 107.96,63.44 108.06,63.44 108.16,63.44 107.28,69.92 107.38,69.92 107.48,69.92 107.59,69.92 107.69,69.92 107.79,69.92 107.90,69.92 108.00,69.92 108.10,69.92 108.21,69.92 108.32,69.92 108.42,69.92 108.53,69.92 108.64,69.92 108.74,69.92 108.85,69.92 108.96,69.92 109.07,69.92 109.18,69.92 109.29,69.92 109.40,69.92 109.51,69.92 109.62,69.92 109.74,69.92 109.85,69.92 109.96,69.92 110.08,69.92 110.19,69.92 110.31,69.92 110.42,69.92 110.54,69.92 110.65,69.92 110.77,69.92 110.89,69.92 111.01,69.92 111.13,69.92 111.25,69.92 111.37,69.92 111.49,69.92 111.61,69.92 111.73,69.92 111.85,69.92 111.98,69.92 112.10,69.92 112.22,69.92 112.35,69.92 112.47,69.92 112.60,69.92 112.73,69.92 112.85,69.92 112.98,69.92 113.11,69.92 113.24,69.92 113.37,69.92 113.50,69.92 113.63,69.92 113.76,69.92 113.90,69.92 114.03,69.92 114.16,69.92 114.30,69.92 114.44,69.92 114.57,69.92 114.71,69.92 114.85,69.92 114.98,69.92 115.12,69.92 115.26,69.92 115.40,69.92 115.54,69.92 115.69,69.92 115.83,69.92 115.97,69.92 116.12,69.92 116.26,69.92 116.41,69.92 115.37,76.40 115.51,76.40 115.66,76.40 115.80,76.40 115.95,76.40 116.10,76.40 116.25,76.40 116.40,76.40 116.55,76.40 116.70,76.40 116.85,76.40 117.00,76.40 117.15,76.40 117.31,76.40 117.46,76.40 117.62,76.40 117.77,76.40 117.93,76.40 118.09,76.40 118.25,76.40 118.41,76.40 118.57,76.40 118.73,76.40 118.90,76.40 119.06,76.40 119.23,76.40 119.39,76.40 119.56,76.40 119.73,76.40 119.89,76.40 118.77,82.88 118.94,82.88 119.11,82.88 119.28,82.88 119.45,82.88 119.62,82.88 119.79,82.88 119.96,82.88 120.14,82.88 120.31,82.88 120.49,82.88 120.67,82.88 120.84,82.88 121.02,82.88 121.20,82.88 121.39,82.88 121.57,82.88 121.75,82.88 121.94,82.88 122.12,82.88 122.31,82.88 122.50,82.88 122.69,82.88 122.88,82.88 123.07,82.88 123.27,82.88 123.46,82.88 123.66,82.88 123.85,82.88 124.05,82.88 124.25,82.88 124.45,82.88 124.65,82.88 124.86,82.88 125.06,82.88 123.83,89.36 122.59,95.84 122.79,95.84 122.99,95.84 123.19,95.84 123.40,95.84 123.60,95.84 122.33,102.32 122.54,102.32 122.74,102.32 122.95,102.32 123.15,102.32 123.36,102.32 123.57,102.32 123.78,102.32 123.99,102.32 124.21,102.32 124.42,102.32 124.64,102.32 124.86,102.32 125.08,102.32 125.30,102.32 125.52,102.32 125.75,102.32 125.97,102.32 126.20,102.32 126.43,102.32 126.66,102.32 126.89,102.32 127.13,102.32 127.36,102.32 127.60,102.32 126.23,108.80 126.47,108.80 126.71,108.80 126.94,108.80 127.19,108.80 127.43,108.80 127.67,108.80 127.92,108.80 128.17,108.80 128.42,108.80 128.67,108.80 128.92,108.80 129.18,108.80 129.43,108.80 129.69,108.80 129.95,108.80 130.22,108.80 130.48,108.80 129.03,115.28 129.29,115.28 129.56,115.28 129.83,115.28 130.10,115.28 130.37,115.28 130.64,115.28 130.92,115.28 131.19,115.28 131.47,115.28 131.76,115.28 132.04,115.28 132.33,115.28 132.62,115.28 132.91,115.28 133.20,115.28 133.50,115.28 133.80,115.28 132.25,121.76 132.55,121.76 132.85,121.76 133.15,121.76 133.45,121.76 133.76,121.76 134.07,121.76 134.38,121.76 134.70,121.76 135.01,121.76 135.33,121.76 135.66,121.76 134.04,128.24 134.36,128.24 134.68,128.24 135.00,128.24 135.33,128.24 135.67,128.24 136.00,128.24 136.34,128.24 136.68,128.24 137.02,128.24 135.33,134.72 135.67,134.72 136.02,134.72 136.37,134.72 136.72,134.72 137.07,134.72 135.33,141.20 133.58,147.68 133.92,147.68 132.14,154.16 132.49,154.16 132.83,154.16 133.18,154.16 133.53,154.16 133.88,154.16 134.24,154.16 134.60,154.16 134.96,154.16 135.33,154.16 135.71,154.16 136.08,154.16 136.46,154.16 136.85,154.16 137.23,154.16 137.62,154.16 135.72,160.64 133.79,167.12 134.17,167.12 134.55,167.12 134.94,167.12 135.33,167.12 135.73,167.12 133.74,173.60 134.13,173.60 134.53,173.60 134.93,173.60 132.89,180.08 133.28,180.08 133.69,180.08 134.09,180.08 134.50,180.08 134.91,180.08 135.33,180.08 135.76,180.08 136.19,180.08 136.62,180.08 137.06,180.08 137.50,180.08 137.95,180.08 138.41,180.08 138.87,180.08 139.33,180.08 139.80,180.08 140.28,180.08 140.77,180.08 141.25,180.08 141.75,180.08 142.25,180.08 142.76,180.08 140.47,186.56 140.97,186.56 141.48,186.56 142.00,186.56 139.65,193.04 137.26,199.52 137.76,199.52 135.33,206.00 135.83,206.00 136.32,206.00 136.83,206.00 137.34,206.00 137.86,206.00 138.39,206.00 138.92,206.00 139.46,206.00 140.01,206.00 140.57,206.00 141.14,206.00 138.52,212.48 139.08,212.48 139.65,212.48 140.22,212.48 137.52,218.96 138.09,218.96 138.67,218.96 139.25,218.96 139.85,218.96 140.45,218.96 141.06,218.96 141.69,218.96 142.32,218.96 142.96,218.96 143.61,218.96 144.28,218.96 144.95,218.96 145.64,218.96 146.33,218.96 143.34,225.44 144.03,225.44 144.74,225.44 145.45,225.44 146.17,225.44 143.05,231.92 143.77,231.92 140.57,238.40 141.28,238.40 142.00,238.40 142.73,238.40 143.48,238.40 140.13,244.88 136.72,251.36 137.43,251.36 138.15,251.36 138.89,251.36 135.33,257.84 136.06,257.84 136.80,257.84 137.56,257.84 138.33,257.84 139.11,257.84 135.33,264.32 131.47,270.80 132.21,270.80 132.97,270.80 133.74,270.80 134.53,270.80 135.33,270.80 136.16,270.80 137.00,270.80 137.86,270.80 138.74,270.80 139.65,270.80 140.57,270.80 141.52,270.80 142.49,270.80 143.48,270.80 144.50,270.80 145.54,270.80 140.97,277.28 142.00,277.28 143.05,277.28 144.13,277.28 145.24,277.28 146.38,277.28 147.56,277.28 148.76,277.28 150.00,277.28 151.28,277.28 152.59,277.28 153.94,277.28 148.67,283.76 150.00,283.76 151.38,283.76 145.81,290.24 147.16,290.24 148.56,290.24 150.00,290.24 145.45,296.72 146.91,296.72 148.43,296.72 150.00,296.72 151.63,296.72 153.32,296.72 146.62,303.20 148.27,303.20 150.00,303.20 151.80,303.20 153.67,303.20 146.26,309.68 138.52,316.16 140.22,316.16 142.00,316.16 133.63,322.64 135.33,322.64 137.12,322.64 139.00,322.64 140.97,322.64 131.47,329.12 133.35,329.12 135.33,329.12 137.43,329.12 139.65,329.12 142.00,329.12 144.50,329.12 147.16,329.12 150.00,329.12 153.03,329.12 156.29,329.12 159.78,329.12 163.54,329.12 167.60,329.12 172.00,329.12 176.78,329.12 182.00,329.12 187.71,329.12 194.00,329.12 200.95,329.12 208.67,329.12 217.29,329.12 199.50,335.60 208.67,335.60 219.14,335.60 197.38,342.08 208.67,342.08 182.00,348.56 194.00,348.56 159.78,355.04 172.00,355.04 187.71,355.04 208.67,355.04 150.00,361.52 172.00,361.52 62.00,368.00 62.00,368.00 62.00,368.00 502.00,368.00" fill="none" stroke="#9333ea" stroke-width="2.5"/>
<text x="282.0" y="406" text-anchor="middle" font-size="12" fill="#333">Recall</text>
<text x="16" y="206.0" text-anchor="middle" font-size="12" fill="#333" transform="rotate(-90 16 206.0)">Precision</text>
<line x1="76" y1="62" x2="102" y2="62" stroke="#2563eb" stroke-width="3"/>
<text x="108" y="66" font-size="11" fill="#333">RandomForest + none (AP=0.201)</text>
<line x1="76" y1="80" x2="102" y2="80" stroke="#dc2626" stroke-width="3"/>
<text x="108" y="84" font-size="11" fill="#333">LogisticRegression + smote (AP=0.195)</text>
<line x1="76" y1="98" x2="102" y2="98" stroke="#16a34a" stroke-width="3"/>
<text x="108" y="102" font-size="11" fill="#333">LogisticRegression + none (AP=0.185)</text>
<line x1="76" y1="116" x2="102" y2="116" stroke="#9333ea" stroke-width="3"/>
<text x="108" y="120" font-size="11" fill="#333">GradientBoosting + random_oversample (AP=0.185)</text>
</svg>